<?xml version="1.0" standalone="no"?>
<!DOCTYPE svg PUBLIC "-//W3C//DTD SVG 20010904//EN"
 "http://www.w3.org/TR/2001/REC-SVG-20010904/DTD/svg10.dtd">
<svg version="1.0" xmlns="http://www.w3.org/2000/svg"
 width="512.000000pt" height="512.000000pt" viewBox="0 0 512.000000 512.000000"
 preserveAspectRatio="xMidYMid meet">

<g transform="translate(0.000000,512.000000) scale(0.100000,-0.100000)"
fill="#0C75F5" stroke="none">
<path d="M3037 5110 c-453 -29 -876 -189 -1208 -458 -179 -145 -362 -369 -460
-565 -54 -106 -114 -289 -133 -406 -20 -117 -22 -295 -3 -288 85 32 270 85
381 108 196 40 354 53 579 46 368 -11 649 -79 962 -232 492 -240 839 -614 990
-1066 38 -115 75 -309 75 -395 l0 -54 385 0 c422 0 429 1 478 59 33 39 43 89
27 136 -7 22 -83 119 -197 250 l-184 214 54 68 c158 197 266 429 313 673 24
130 24 370 0 500 -43 221 -149 460 -284 640 -396 524 -1068 815 -1775 770z"/>
<path d="M1124 2086 c-214 -70 -281 -339 -124 -496 143 -143 388 -103 476 77
24 48 29 71 29 133 0 85 -21 142 -74 203 -68 76 -210 115 -307 83z"/>
<path d="M2024 2086 c-144 -45 -235 -196 -205 -343 38 -192 254 -298 428 -209
134 68 196 226 146 372 -22 66 -110 153 -178 177 -58 20 -133 21 -191 3z"/>
<path d="M2927 2086 c-164 -61 -246 -231 -187 -389 58 -155 231 -234 384 -177
242 92 263 421 35 545 -64 34 -171 44 -232 21z"/>
</g>
</svg>
